<svg width="101" height="33" viewBox="0 0 101 33" fill="none" xmlns="http://www.w3.org/2000/svg">
<path d="M0.553977 5.63224V3.65454H9.87188V5.63224H6.39844V15H4.02742V5.63224H0.553977ZM11.4064 15V3.65454H15.8825C16.7393 3.65454 17.4706 3.80781 18.0763 4.11435C18.6857 4.41719 19.1491 4.84744 19.4668 5.40511C19.7881 5.95909 19.9487 6.61094 19.9487 7.36065C19.9487 8.11406 19.7862 8.76222 19.4612 9.30511C19.1362 9.84432 18.6653 10.258 18.0486 10.546C17.4355 10.8341 16.6932 10.9781 15.8216 10.9781H12.8246V9.05028H15.4338C15.8918 9.05028 16.2722 8.9875 16.575 8.86193C16.8778 8.73636 17.1031 8.54801 17.2509 8.29687C17.4023 8.04574 17.478 7.73366 17.478 7.36065C17.478 6.98395 17.4023 6.66633 17.2509 6.40781C17.1031 6.14929 16.876 5.95355 16.5695 5.8206C16.2666 5.68395 15.8844 5.61562 15.4227 5.61562H13.8051V15H11.4064ZM17.5334 9.83693L20.3531 15H17.7051L14.9463 9.83693H17.5334ZM28.6517 3.65454H31.0504V11.0224C31.0504 11.8497 30.8528 12.5736 30.4577 13.194C30.0662 13.8145 29.5178 14.2983 28.8124 14.6455C28.107 14.9889 27.2852 15.1607 26.3472 15.1607C25.4054 15.1607 24.5818 14.9889 23.8764 14.6455C23.171 14.2983 22.6226 13.8145 22.2311 13.194C21.8396 12.5736 21.6439 11.8497 21.6439 11.0224V3.65454H24.0426V10.8175C24.0426 11.2496 24.1368 11.6337 24.3251 11.9697C24.5172 12.3058 24.7868 12.5699 25.134 12.7619C25.4811 12.954 25.8855 13.05 26.3472 13.05C26.8125 13.05 27.2169 12.954 27.5604 12.7619C27.9075 12.5699 28.1753 12.3058 28.3636 11.9697C28.5557 11.6337 28.6517 11.2496 28.6517 10.8175V3.65454ZM33.024 15V3.65454H40.6689V5.63224H35.4227V8.33565H40.2755V10.3134H35.4227V13.0223H40.691V15H33.024Z" fill="#C73232"/>
<path d="M56.2592 3.65454V15H55.9046L48.1489 4.31932H48.1046V15H47.7501V3.65454H48.1046L55.8603 14.3352H55.9046V3.65454H56.2592ZM68.5533 9.32727C68.5533 10.4832 68.3557 11.4989 67.9605 12.3741C67.5654 13.2494 67.0151 13.9327 66.3097 14.4239C65.6043 14.9114 64.7863 15.1551 63.8556 15.1551C62.9212 15.1551 62.1013 14.9095 61.3959 14.4183C60.6905 13.9271 60.1402 13.2439 59.7451 12.3686C59.3536 11.4933 59.1579 10.4795 59.1579 9.32727C59.1579 8.17131 59.3554 7.15753 59.7506 6.28594C60.1458 5.41065 60.6961 4.72741 61.4015 4.23622C62.1069 3.74503 62.9249 3.49943 63.8556 3.49943C64.7863 3.49943 65.6043 3.74503 66.3097 4.23622C67.0151 4.72372 67.5654 5.40511 67.9605 6.2804C68.3557 7.15568 68.5533 8.17131 68.5533 9.32727ZM68.1988 9.32727C68.1988 8.24148 68.0159 7.28864 67.6503 6.46875C67.2847 5.64517 66.775 5.0044 66.1213 4.54645C65.4713 4.0848 64.7161 3.85398 63.8556 3.85398C62.9988 3.85398 62.2435 4.08295 61.5898 4.54091C60.9398 4.99517 60.4302 5.63409 60.0608 6.45767C59.6952 7.27756 59.5124 8.23409 59.5124 9.32727C59.5124 10.4057 59.6934 11.3567 60.0553 12.1803C60.4172 13.0001 60.9232 13.6428 61.5732 14.1081C62.2269 14.5697 62.9877 14.8006 63.8556 14.8006C64.7161 14.8006 65.4732 14.5716 66.1269 14.1136C66.7806 13.652 67.2902 13.0112 67.6559 12.1913C68.0215 11.3678 68.2025 10.4131 68.1988 9.32727ZM71.4548 15V3.65454H74.7786C75.4138 3.65454 75.9752 3.78935 76.4627 4.05895C76.9539 4.32855 77.338 4.70525 77.615 5.18906C77.8957 5.67287 78.036 6.23977 78.036 6.88977C78.036 7.53239 77.8957 8.0956 77.615 8.5794C77.338 9.05952 76.9539 9.43437 76.4627 9.70398C75.9752 9.96989 75.4138 10.1028 74.7786 10.1028H71.632V9.74829H74.7786C75.3474 9.74829 75.8496 9.63011 76.2854 9.39375C76.7212 9.15739 77.0629 8.825 77.3103 8.39659C77.5577 7.96818 77.6815 7.46591 77.6815 6.88977C77.6815 6.30994 77.5577 5.80398 77.3103 5.37187C77.0629 4.93977 76.7212 4.60554 76.2854 4.36918C75.8496 4.12912 75.3474 4.00909 74.7786 4.00909H71.8093V15H71.4548ZM75.7758 9.83693L78.5678 15H78.169L75.3769 9.83693H75.7758ZM80.2325 4.00909V3.65454H87.8996V4.00909H84.2433V15H83.8888V4.00909H80.2325ZM90.6196 15V3.65454H90.9742V9.15H98.198V3.65454H98.5526V15H98.198V9.50454H90.9742V15H90.6196Z" fill="black"/>
<path d="M0.886364 29H0.509659L4.56477 17.6545H5.05227L9.10739 29H8.73068L4.83068 18.0977H4.78636L0.886364 29ZM2.17159 24.8119H7.44546V25.1665H2.17159V24.8119ZM19.1856 17.6545H19.5402V25.1665C19.5402 25.9347 19.361 26.6216 19.0028 27.2273C18.6483 27.8293 18.1645 28.3057 17.5514 28.6565C16.9383 29.0037 16.2422 29.1773 15.4629 29.1773C14.691 29.1773 13.9967 29.0018 13.3799 28.651C12.7632 28.3001 12.2757 27.8237 11.9174 27.2217C11.5592 26.6161 11.3819 25.931 11.3856 25.1665V17.6545H11.7402V25.1665C11.7402 25.8682 11.9008 26.4942 12.2221 27.0445C12.5471 27.5947 12.9903 28.0287 13.5517 28.3463C14.113 28.6639 14.7501 28.8227 15.4629 28.8227C16.1757 28.8227 16.8127 28.6639 17.3741 28.3463C17.9355 28.0287 18.3768 27.5947 18.6981 27.0445C19.0231 26.4942 19.1856 25.8682 19.1856 25.1665V17.6545ZM22.2657 18.0091V17.6545H29.9328V18.0091H26.2765V29H25.922V18.0091H22.2657ZM40.9334 23.3273C40.9334 24.4832 40.7358 25.4989 40.3406 26.3741C39.9455 27.2494 39.3952 27.9327 38.6898 28.4239C37.9844 28.9114 37.1663 29.1551 36.2357 29.1551C35.3013 29.1551 34.4814 28.9095 33.776 28.4183C33.0706 27.9271 32.5203 27.2439 32.1251 26.3686C31.7337 25.4933 31.5379 24.4795 31.5379 23.3273C31.5379 22.1713 31.7355 21.1575 32.1307 20.2859C32.5259 19.4107 33.0761 18.7274 33.7815 18.2362C34.4869 17.745 35.305 17.4994 36.2357 17.4994C37.1663 17.4994 37.9844 17.745 38.6898 18.2362C39.3952 18.7237 39.9455 19.4051 40.3406 20.2804C40.7358 21.1557 40.9334 22.1713 40.9334 23.3273ZM40.5788 23.3273C40.5788 22.2415 40.396 21.2886 40.0304 20.4687C39.6648 19.6452 39.1551 19.0044 38.5014 18.5464C37.8514 18.0848 37.0962 17.854 36.2357 17.854C35.3788 17.854 34.6236 18.083 33.9699 18.5409C33.3199 18.9952 32.8102 19.6341 32.4409 20.4577C32.0753 21.2776 31.8925 22.2341 31.8925 23.3273C31.8925 24.4057 32.0734 25.3567 32.4354 26.1803C32.7973 27.0001 33.3033 27.6428 33.9533 28.1081C34.607 28.5697 35.3678 28.8006 36.2357 28.8006C37.0962 28.8006 37.8533 28.5716 38.507 28.1136C39.1607 27.652 39.6703 27.0112 40.0359 26.1913C40.4016 25.3678 40.5825 24.4131 40.5788 23.3273Z" fill="black"/>
<path d="M47.4357 29V17.6545H49.8344V27.0223H54.6983V29H47.4357ZM66.2709 23.3273C66.2709 24.5645 66.0364 25.617 65.5674 26.4849C65.102 27.3528 64.4668 28.0158 63.6617 28.4737C62.8603 28.928 61.9591 29.1551 60.9583 29.1551C59.95 29.1551 59.0452 28.9261 58.2438 28.4682C57.4424 28.0102 56.809 27.3473 56.3436 26.4794C55.8783 25.6115 55.6456 24.5608 55.6456 23.3273C55.6456 22.0901 55.8783 21.0375 56.3436 20.1696C56.809 19.3017 57.4424 18.6406 58.2438 18.1864C59.0452 17.7284 59.95 17.4994 60.9583 17.4994C61.9591 17.4994 62.8603 17.7284 63.6617 18.1864C64.4668 18.6406 65.102 19.3017 65.5674 20.1696C66.0364 21.0375 66.2709 22.0901 66.2709 23.3273ZM63.839 23.3273C63.839 22.5259 63.7189 21.85 63.4789 21.2997C63.2425 20.7494 62.9083 20.3321 62.4762 20.0477C62.0441 19.7634 61.5381 19.6212 60.9583 19.6212C60.3784 19.6212 59.8725 19.7634 59.4404 20.0477C59.0083 20.3321 58.6722 20.7494 58.4321 21.2997C58.1958 21.85 58.0776 22.5259 58.0776 23.3273C58.0776 24.1287 58.1958 24.8045 58.4321 25.3548C58.6722 25.9051 59.0083 26.3224 59.4404 26.6068C59.8725 26.8912 60.3784 27.0334 60.9583 27.0334C61.5381 27.0334 62.0441 26.8912 62.4762 26.6068C62.9083 26.3224 63.2425 25.9051 63.4789 25.3548C63.7189 24.8045 63.839 24.1287 63.839 23.3273ZM69.3635 29H66.793L70.7097 17.6545H73.8009L77.7119 29H75.1415L72.2996 20.2472H72.2109L69.3635 29ZM69.2028 24.5405H75.2744V26.4129H69.2028V24.5405ZM88.5671 17.6545V29H86.4952L81.5593 21.8592H81.4762V29H79.0775V17.6545H81.1826L86.0798 24.7898H86.1795V17.6545H88.5671ZM96.7037 20.9175C96.6593 20.4706 96.4691 20.1234 96.1331 19.876C95.797 19.6286 95.3409 19.5048 94.7647 19.5048C94.3733 19.5048 94.0427 19.5602 93.7731 19.671C93.5035 19.7781 93.2967 19.9277 93.1527 20.1197C93.0123 20.3118 92.9422 20.5297 92.9422 20.7734C92.9348 20.9766 92.9772 21.1538 93.0696 21.3053C93.1656 21.4567 93.2967 21.5878 93.4629 21.6986C93.6291 21.8057 93.8211 21.8999 94.039 21.9811C94.2569 22.0587 94.4896 22.1251 94.737 22.1805L95.7564 22.4243C96.2512 22.5351 96.7055 22.6828 97.1191 22.8675C97.5328 23.0521 97.891 23.2793 98.1939 23.5489C98.4967 23.8185 98.7312 24.1361 98.8974 24.5017C99.0673 24.8673 99.1541 25.2865 99.1578 25.7592C99.1541 26.4536 98.9768 27.0555 98.626 27.5652C98.2788 28.0712 97.7765 28.4645 97.1191 28.7452C96.4655 29.0222 95.677 29.1607 94.7537 29.1607C93.8378 29.1607 93.04 29.0203 92.3605 28.7396C91.6846 28.4589 91.1565 28.0435 90.7761 27.4932C90.3994 26.9392 90.2018 26.2541 90.1834 25.4379H92.5045C92.5304 25.8183 92.6393 26.1359 92.8314 26.3908C93.0271 26.6419 93.2875 26.8321 93.6125 26.9614C93.9412 27.0869 94.3123 27.1497 94.726 27.1497C95.1322 27.1497 95.4849 27.0906 95.7841 26.9724C96.0869 26.8543 96.3214 26.6899 96.4876 26.4794C96.6538 26.2689 96.7369 26.027 96.7369 25.7537C96.7369 25.4989 96.6612 25.2847 96.5098 25.1111C96.362 24.9375 96.1441 24.7898 95.8561 24.6679C95.5717 24.546 95.2227 24.4352 94.8091 24.3355L93.5737 24.0253C92.6172 23.7926 91.8619 23.4288 91.3079 22.9339C90.7539 22.4391 90.4788 21.7724 90.4825 20.9341C90.4788 20.2472 90.6616 19.647 91.0309 19.1337C91.4039 18.6203 91.9155 18.2196 92.5655 17.9315C93.2155 17.6435 93.9541 17.4994 94.7814 17.4994C95.6234 17.4994 96.3584 17.6435 96.9862 17.9315C97.6177 18.2196 98.1089 18.6203 98.4598 19.1337C98.8106 19.647 98.9916 20.2416 99.0027 20.9175H96.7037Z" fill="#C73232"/>
</svg>
